<svg width="23" height="26" viewBox="0 0 23 26" fill="none" xmlns="http://www.w3.org/2000/svg">
<path d="M6.16835 25.5134C5.65573 25.1724 5.20141 24.751 4.82285 24.2654C4.40643 23.7642 4.02061 23.2384 3.66747 22.6908C2.83879 21.4767 2.18891 20.1499 1.73779 18.751C1.19585 17.126 0.933411 15.5684 0.933411 14.045C0.933411 12.3436 1.30147 10.8583 2.02135 9.61033C2.55498 8.63488 3.33956 7.81972 4.29391 7.24921C5.21879 6.67474 6.28148 6.36037 7.37003 6.33921C7.7511 6.33921 8.16141 6.39446 8.59691 6.50008C8.90972 6.58864 9.29078 6.72839 9.75635 6.90227C10.3487 7.13058 10.6745 7.27033 10.785 7.30446C11.1319 7.43121 11.4236 7.48645 11.6527 7.48645C11.8266 7.48645 12.072 7.43121 12.3507 7.34671C12.5075 7.29146 12.8032 7.19395 13.2265 7.01277C13.6458 6.86002 13.9757 6.72921 14.2381 6.63171C14.6403 6.51308 15.0295 6.40339 15.3764 6.34814C15.7877 6.2833 16.2051 6.26612 16.6203 6.29696C17.3399 6.34399 18.0487 6.49647 18.7239 6.74952C19.8281 7.19396 20.721 7.88783 21.3857 8.87421C21.1047 9.04735 20.8411 9.24705 20.5983 9.47058C20.0699 9.93905 19.6198 10.489 19.265 11.0996C18.8013 11.9341 18.5609 12.8742 18.5671 13.8288C18.5842 15.0013 18.8848 16.034 19.4771 16.9269C19.9126 17.5887 20.4785 18.1546 21.1403 18.5901C21.4791 18.8184 21.7708 18.9752 22.0503 19.0808C21.9195 19.4871 21.7797 19.8803 21.6148 20.2703C21.2407 21.1449 20.7873 21.9834 20.2603 22.7753C19.7907 23.457 19.4227 23.9648 19.1432 24.3028C18.7077 24.8187 18.2884 25.2128 17.8651 25.4874C17.3995 25.7961 16.8495 25.9611 16.2905 25.9611C15.9119 25.9756 15.5334 25.9298 15.1692 25.8254C14.8564 25.7198 14.5468 25.6052 14.2422 25.4744C13.9254 25.3289 13.5988 25.2059 13.2647 25.1063C12.439 24.8942 11.5732 24.8928 10.7468 25.1023C10.408 25.1998 10.0822 25.3135 9.76041 25.4533C9.30785 25.6434 9.00722 25.771 8.83335 25.8254C8.48641 25.927 8.12647 25.9903 7.76247 26.0115C7.19941 26.0115 6.67453 25.8506 6.15453 25.5248L6.16835 25.5134ZM13.5946 5.5137C12.8585 5.88177 12.1557 6.03858 11.4577 5.98739C11.348 5.28458 11.4577 4.56552 11.7494 3.77821C11.9977 3.1112 12.3647 2.4946 12.8325 1.95821C13.3265 1.39354 13.9259 0.930698 14.5972 0.595643C15.3122 0.22758 15.9939 0.0285176 16.6455 -0.000732422C16.73 0.735393 16.6455 1.45933 16.375 2.24177C16.1246 2.93344 15.7583 3.57746 15.2919 4.14627C14.8158 4.71171 14.2316 5.17634 13.5735 5.51289L13.5946 5.5137Z" fill="black"/>
</svg>
