<svg width="44" height="44" viewBox="0 0 44 44" fill="none" xmlns="http://www.w3.org/2000/svg">
<rect width="44" height="44" rx="22" fill="#F5F5F8"/>
<mask id="mask0_292_686" style="mask-type:luminance" maskUnits="userSpaceOnUse" x="0" y="0" width="44" height="44">
<rect width="44" height="44" rx="22" fill="white"/>
</mask>
<g mask="url(#mask0_292_686)">
<path d="M21.3714 29.7679C19.522 29.7803 16.0451 29.9918 14.6367 30.4408L21.3714 36.6704L28.1061 30.4408C26.6978 29.9919 23.2208 29.7803 21.3714 29.7679Z" fill="#454F58"/>
<path d="M34.557 42.9861L33.7045 36.1662C33.5758 35.1368 32.8675 34.2728 31.8833 33.9447L29.4468 33.1326C29.4533 33.0933 29.539 32.4948 28.8151 32.0123C28.2258 31.6194 28.9975 30.9038 28.0995 30.4408L25.8404 32.4739C25.5737 32.2247 25.4123 31.8719 25.4123 31.4903V29.3182L28.3133 28.1095C29.8192 27.4822 30.8 26.0109 30.8 24.3796V23.7061C31.9159 23.7061 32.8204 22.8016 32.8204 21.6857C32.8204 21.0912 32.5636 20.5568 32.155 20.1871L32.41 15.3404C32.6331 11.1019 29.2565 7.54285 25.0121 7.54285H17.7308C13.4865 7.54285 10.1098 11.1019 10.3329 15.3404L10.5879 20.1871C10.1793 20.5568 9.92248 21.0913 9.92248 21.6858C9.92248 22.8016 10.827 23.7062 11.9429 23.7062V24.3797C11.9429 26.0109 12.9237 27.4822 14.4295 28.1097L17.3306 29.3184V31.4904C17.3306 31.8735 17.1679 32.2276 16.8992 32.477L14.6368 30.4408C13.7388 30.9038 14.5105 31.6194 13.9212 32.0123C13.1727 32.5112 13.2897 33.1342 13.2898 33.1347L10.8596 33.9448C9.87542 34.2728 9.1671 35.1369 9.03838 36.1663L8.18593 42.9862C8.03525 44.192 8.97549 45.2571 10.1908 45.2571H32.5521C33.7675 45.2571 34.7077 44.192 34.557 42.9861Z" fill="#F6B47B"/>
<path d="M17.7307 7.54285C13.4864 7.54285 10.1098 11.1019 10.3328 15.3404L10.5958 20.3388H32.1469L32.4099 15.3404C32.633 11.1019 29.2564 7.54285 25.012 7.54285H17.7307Z" fill="#8D5F3D"/>
<path d="M10.3327 15.3404L10.5958 20.3388H11.2693H15.6468C18.2144 12.3834 24.0652 7.54285 24.0652 7.54285H17.7306C13.4863 7.54285 10.1096 11.1018 10.3327 15.3404Z" fill="#835438"/>
<path d="M34.557 42.9863L33.7046 36.1664C33.5759 35.137 32.8675 34.2729 31.8834 33.9448L28.0812 32.6774C27.778 32.5763 27.4397 32.6991 27.287 32.9798C26.1462 35.077 21.6322 36.5021 21.3715 36.5021C21.1108 36.5021 16.5968 35.077 15.4561 32.9798C15.3034 32.6991 14.965 32.5764 14.6619 32.6774L10.8597 33.9448C9.87547 34.2729 9.16715 35.137 9.03852 36.1664L8.18607 42.9863C8.0353 44.1921 8.97555 45.2572 10.1908 45.2572H32.5522C33.7675 45.2572 34.7078 44.1921 34.557 42.9863Z" fill="#5D7197"/>
<path d="M9.59994 34.8325C9.30092 35.2111 9.10073 35.6685 9.03852 36.1662L8.18607 42.9861C8.0353 44.1921 8.97555 45.2572 10.1908 45.2572H13.9633V40.874C13.9633 40.226 13.7298 39.5998 13.3056 39.1101L9.59994 34.8325Z" fill="#5D7197"/>
<path d="M33.1429 34.8325C33.442 35.2111 33.6422 35.6685 33.7044 36.1662L34.5568 42.9861C34.7077 44.1921 33.7674 45.2572 32.5521 45.2572H28.7795V40.874C28.7795 40.226 29.0131 39.5998 29.4373 39.1101L33.1429 34.8325Z" fill="#5D7197"/>
<path d="M25.4122 29.3183L17.3305 27.5223V31.4903C17.3305 31.9751 17.0623 32.4021 16.6556 32.6402C22.3039 33.6289 25.4122 29.3183 25.4122 29.3183Z" fill="#E2A071"/>
<path d="M30.7999 19.6652V18.3183C30.7999 16.4586 29.2923 14.9509 27.4326 14.9509H15.3101C13.4503 14.9509 11.9428 16.4586 11.9428 18.3183V19.6652C10.8269 19.6652 9.92236 20.5698 9.92236 21.6856C9.92236 22.8015 10.8269 23.706 11.9428 23.706V24.3795C11.9428 26.0107 12.9236 27.482 14.4294 28.1095L18.7809 29.9227C19.6017 30.2647 20.4821 30.4407 21.3713 30.4407C22.2604 30.4407 23.1407 30.2646 23.9615 29.9227L28.3133 28.1094C29.8191 27.4821 30.7999 26.0108 30.7999 24.3795V23.706C31.9158 23.706 32.8203 22.8015 32.8203 21.6856C32.8203 20.5698 31.9158 19.6652 30.7999 19.6652Z" fill="#FDC88E"/>
<path d="M16.6571 22.3592C16.2867 22.3592 15.9836 22.0561 15.9836 21.6857V21.0122C15.9836 20.6418 16.2867 20.3387 16.6571 20.3387C17.0275 20.3387 17.3306 20.6418 17.3306 21.0122V21.6857C17.3306 22.0561 17.0275 22.3592 16.6571 22.3592Z" fill="#623F33"/>
<path d="M26.0857 22.3592C25.7153 22.3592 25.4122 22.0561 25.4122 21.6857V21.0122C25.4122 20.6418 25.7153 20.3387 26.0857 20.3387C26.4561 20.3387 26.7592 20.6418 26.7592 21.0122V21.6857C26.7592 22.0561 26.4561 22.3592 26.0857 22.3592Z" fill="#623F33"/>
<path d="M21.3714 27.092C20.1741 27.092 19.0541 26.7973 18.2987 26.2834C17.9913 26.0743 17.9114 25.6553 18.1209 25.3478C18.3296 25.0407 18.749 24.9608 19.0564 25.17C19.5858 25.53 20.4513 25.7451 21.3714 25.7451C22.2916 25.7451 23.1571 25.53 23.6865 25.17C23.9946 24.9602 24.4129 25.0404 24.622 25.3478C24.8315 25.6553 24.7516 26.0743 24.4441 26.2834C23.6888 26.7973 22.5688 27.092 21.3714 27.092Z" fill="#E2A071"/>
<path d="M18.4249 20.3388C22.2412 18.0378 24.2336 15.0353 24.2336 15.0353L14.6366 15.0189C13.0997 15.331 11.9428 16.6894 11.9428 18.3184V19.6654C10.8269 19.6654 9.92236 20.5699 9.92236 21.6858C9.92236 22.8016 10.8269 23.7062 11.9428 23.7062V24.3796C11.9428 26.011 12.9236 27.4822 14.4294 28.1097L18.7808 29.9228C18.9938 30.0115 19.2112 30.088 19.4313 30.1542C17.5082 28.7474 16.2281 27.5176 15.4781 26.7135C14.9324 26.1284 14.6366 25.3563 14.6366 24.5563V18.5429L18.4249 20.3388Z" fill="#F6B47B"/>
<path d="M28.815 32.0123C28.2257 31.6194 28.9974 30.9038 28.0994 30.4408L21.3681 36.499L14.6367 30.4408C13.7387 30.9038 14.5104 31.6194 13.9211 32.0123C13.1724 32.5115 13.2898 33.1347 13.2898 33.1347L21.3647 37.1721V37.1755L21.3681 37.1738L21.3714 37.1755V37.1721L29.4464 33.1347C29.4464 33.1347 29.5638 32.5115 28.815 32.0123Z" fill="#22384F"/>
<path d="M12.6163 16.298L15.3125 17.646L17.3306 16.9715L16.6584 18.3191L18.0041 18.9919C18.0041 18.9919 20.2981 17.8554 22.7184 15.2036V18.3184C22.7184 18.3184 24.5704 18.2763 25.4123 17.6449L26.0857 14.9511C26.0857 14.9511 26.7592 16.9153 27.4327 18.3184L28.7796 17.6449V13.6041H12.6163V16.298Z" fill="#8D5F3D"/>
<path d="M12.6163 13.6041V16.298L15.3125 17.6461L16.9318 17.1048C17.5386 15.8224 18.2108 14.6519 18.8932 13.6042L12.6163 13.6041Z" fill="#835438"/>
</g>
</svg>
