<svg width="44" height="44" viewBox="0 0 44 44" fill="none" xmlns="http://www.w3.org/2000/svg">
<path fill-rule="evenodd" clip-rule="evenodd" d="M22 44C34.1503 44 44 34.1503 44 22C44 9.84974 34.1503 0 22 0C9.84974 0 0 9.84974 0 22C0 34.1503 9.84974 44 22 44Z" fill="#F5F5F8"/>
<mask id="mask0_654_119" style="mask-type:luminance" maskUnits="userSpaceOnUse" x="0" y="0" width="44" height="44">
<path fill-rule="evenodd" clip-rule="evenodd" d="M22 44C34.1503 44 44 34.1503 44 22C44 9.84974 34.1503 0 22 0C9.84974 0 0 9.84974 0 22C0 34.1503 9.84974 44 22 44Z" fill="white"/>
</mask>
<g mask="url(#mask0_654_119)">
<path fill-rule="evenodd" clip-rule="evenodd" d="M38.0067 38.8955C36.7097 37.0193 34.7975 35.6555 32.6012 35.0402L27.5 33.6112V29.9447C29.6565 28.3247 31.0727 25.7756 31.1597 22.892C31.4611 23.0248 31.7938 23.1001 32.1446 23.1001C33.4945 23.1001 34.589 22.0057 34.589 20.6557C34.589 19.3056 33.4945 18.2112 32.1446 18.2112C31.7966 18.2112 31.4664 18.2849 31.1668 18.4159V17.7223C31.1668 12.6596 27.0627 8.55566 22.0001 8.55566H22C16.9374 8.55566 12.8335 12.6596 12.8335 17.7223V18.4159C12.5338 18.2849 12.2035 18.2112 11.8557 18.2112C10.5056 18.2112 9.41125 19.3056 9.41125 20.6557C9.41125 22.0057 10.5056 23.1001 11.8557 23.1001C12.2063 23.1001 12.539 23.0249 12.8406 22.892C12.9275 25.7756 14.3436 28.3247 16.5 29.9447V33.6112L11.3989 35.0402C9.20261 35.6555 7.29045 37.0193 5.99342 38.8955L2.44458 44.0294V47.6668H41.5557V44.0294L38.0067 38.8955Z" fill="#FFCF83"/>
<path fill-rule="evenodd" clip-rule="evenodd" d="M22 31.7778C20.8697 31.7778 19.7877 31.572 18.788 31.1978C20.2099 32.1062 21.8985 32.6333 23.7111 32.6333C25.0629 32.6333 26.3448 32.3384 27.5 31.8132V29.9446C25.9679 31.0954 24.0637 31.7778 22 31.7778Z" fill="#F7A74F"/>
<path d="M13.1522 21.0124C13.1833 20.8988 13.2001 20.7792 13.2001 20.6557C13.2001 19.9132 12.5981 19.3113 11.8556 19.3113C11.67 19.3113 11.4931 19.3489 11.3323 19.4169" stroke="#00004D" stroke-width="0.5625" stroke-linecap="round" stroke-linejoin="round"/>
<path d="M30.8478 21.0124C30.8167 20.8988 30.8 20.7792 30.8 20.6557C30.8 19.9132 31.402 19.3113 32.1445 19.3113C32.33 19.3113 32.5069 19.3489 32.6679 19.4169" stroke="#00004D" stroke-width="0.5625" stroke-linecap="round" stroke-linejoin="round"/>
<path fill-rule="evenodd" clip-rule="evenodd" d="M24.4444 26.1566C24.4444 27.5067 23.3501 28.6011 22 28.6011C20.6499 28.6011 19.5555 27.5067 19.5555 26.1566H24.4444Z" fill="white"/>
<path fill-rule="evenodd" clip-rule="evenodd" d="M27.0112 21.0222C27.0112 21.5622 26.5734 22 26.0334 22C25.4935 22 25.0557 21.5622 25.0557 21.0222C25.0557 20.4822 25.4935 20.0444 26.0334 20.0444C26.5734 20.0444 27.0112 20.4822 27.0112 21.0222" fill="#00004D"/>
<path fill-rule="evenodd" clip-rule="evenodd" d="M18.9444 21.0222C18.9444 21.5622 18.5066 22 17.9667 22C17.4267 22 16.9889 21.5622 16.9889 21.0222C16.9889 20.4822 17.4267 20.0444 17.9667 20.0444C18.5066 20.0444 18.9444 20.4822 18.9444 21.0222" fill="#00004D"/>
<path d="M22 20.0444L23.2222 24.2L21.5111 24.4444" stroke="#00004D" stroke-width="1.125" stroke-linecap="round" stroke-linejoin="round"/>
<path fill-rule="evenodd" clip-rule="evenodd" d="M31.7777 18.2416V17.7222C31.7777 15.8466 31.2486 14.0949 30.3331 12.6066C29.4845 11.2273 28.3026 10.0765 26.9004 9.2625C25.4593 8.42577 23.7862 7.94446 21.9999 7.94446C20.2135 7.94446 18.5406 8.42577 17.0994 9.2625C15.6973 10.0765 14.5154 11.2273 13.6668 12.6066C12.7513 14.0949 12.2222 15.8466 12.2222 17.7222V18.2416C12.7321 18.3186 13.19 18.5514 13.5456 18.8921C14.6717 17.7618 15.5786 16.4132 16.1956 14.9139C17.9224 15.8476 19.8992 16.3778 21.9999 16.3778C24.1007 16.3778 26.0775 15.8476 27.8043 14.9139C28.4211 16.4132 29.3283 17.7618 30.4543 18.8921C30.8098 18.5514 31.2678 18.3186 31.7777 18.2416" fill="#00004D"/>
<path fill-rule="evenodd" clip-rule="evenodd" d="M41.5556 44.0294L38.0066 38.8955C36.7097 37.0194 34.7975 35.6555 32.6011 35.0402L27.5 33.6112C27.5 36.6488 25.0376 39.1112 22 39.1112V39.1112C18.9624 39.1112 16.5 36.6488 16.5 33.6112L11.3988 35.0402C9.20249 35.6555 7.29032 37.0194 5.9933 38.8955L2.44446 44.0294V47.6668H41.5556V44.0294Z" fill="#5D7197"/>
</g>
</svg>
