<svg width="44" height="44" viewBox="0 0 44 44" fill="none" xmlns="http://www.w3.org/2000/svg">
<rect width="44" height="44" rx="21.875" fill="#F5F5F8"/>
<mask id="mask0_291_525" style="mask-type:luminance" maskUnits="userSpaceOnUse" x="0" y="0" width="44" height="44">
<rect width="44" height="44" rx="21.875" fill="white"/>
</mask>
<g mask="url(#mask0_291_525)">
<path fill-rule="evenodd" clip-rule="evenodd" d="M38.0066 38.8955C36.7096 37.0193 34.7974 35.6555 32.6011 35.0402L27.4999 33.6112V29.9447C29.6564 28.3247 31.0726 25.7756 31.1596 22.892C31.461 23.0248 31.7937 23.1001 32.1445 23.1001C33.4944 23.1001 34.5889 22.0057 34.5889 20.6557C34.5889 19.3056 33.4944 18.2112 32.1445 18.2112C31.7965 18.2112 31.4662 18.2849 31.1667 18.4159V17.7223C31.1667 12.6596 27.0626 8.55566 22 8.55566H21.9999C16.9373 8.55566 12.8333 12.6596 12.8333 17.7223V18.4159C12.5337 18.2849 12.2034 18.2112 11.8556 18.2112C10.5055 18.2112 9.41113 19.3056 9.41113 20.6557C9.41113 22.0057 10.5055 23.1001 11.8556 23.1001C12.2062 23.1001 12.5389 23.0249 12.8404 22.892C12.9273 25.7756 14.3435 28.3247 16.4999 29.9447V33.6112L11.3988 35.0402C9.20249 35.6555 7.29032 37.0193 5.9933 38.8955L2.44446 44.0294V47.6668H41.5556V44.0294L38.0066 38.8955Z" fill="#E9ADA1"/>
<path fill-rule="evenodd" clip-rule="evenodd" d="M22 31.7778C20.8697 31.7778 19.7877 31.572 18.788 31.1978C20.2099 32.1062 21.8985 32.6333 23.7111 32.6333C25.0629 32.6333 26.3448 32.3384 27.5 31.8132V29.9446C25.9679 31.0954 24.0637 31.7778 22 31.7778Z" fill="#DB8B79"/>
<path d="M13.1523 21.0122C13.1835 20.8987 13.2002 20.779 13.2002 20.6556C13.2002 19.9131 12.5983 19.3112 11.8558 19.3112C11.6701 19.3112 11.4932 19.3488 11.3324 19.4168" stroke="#00004D" stroke-width="0.546875" stroke-linecap="round" stroke-linejoin="round"/>
<path d="M30.8478 21.0122C30.8167 20.8987 30.8 20.779 30.8 20.6556C30.8 19.9131 31.402 19.3112 32.1445 19.3112C32.33 19.3112 32.5069 19.3488 32.6678 19.4168" stroke="#00004D" stroke-width="0.546875" stroke-linecap="round" stroke-linejoin="round"/>
<path fill-rule="evenodd" clip-rule="evenodd" d="M24.4444 26.1566C24.4444 27.5067 23.3501 28.6011 22 28.6011C20.6499 28.6011 19.5555 27.5067 19.5555 26.1566H24.4444Z" fill="white"/>
<path fill-rule="evenodd" clip-rule="evenodd" d="M27.0111 21.0222C27.0111 21.5622 26.5733 22 26.0333 22C25.4933 22 25.0555 21.5622 25.0555 21.0222C25.0555 20.4822 25.4933 20.0444 26.0333 20.0444C26.5733 20.0444 27.0111 20.4822 27.0111 21.0222" fill="#00004D"/>
<path fill-rule="evenodd" clip-rule="evenodd" d="M18.9444 21.0222C18.9444 21.5622 18.5066 22 17.9667 22C17.4267 22 16.9889 21.5622 16.9889 21.0222C16.9889 20.4822 17.4267 20.0444 17.9667 20.0444C18.5066 20.0444 18.9444 20.4822 18.9444 21.0222" fill="#00004D"/>
<path d="M22 20.0444L23.2222 24.2L21.5111 24.4444" stroke="#00004D" stroke-width="1.09375" stroke-linecap="round" stroke-linejoin="round"/>
<path fill-rule="evenodd" clip-rule="evenodd" d="M19.1108 13.9871C17.8389 16.1604 15.9134 17.9021 13.6058 18.9509C13.198 18.5322 12.6412 18.2614 12.0212 18.2197L12.3423 16.187V16.1869C12.5469 14.8912 13.0063 13.6805 13.6669 12.6065C14.2771 11.615 15.06 10.7424 15.9727 10.0271C16.3294 9.74748 16.7055 9.4913 17.0995 9.26238C18.2059 8.62022 19.4493 8.18829 20.7754 8.02182C21.1765 7.97147 21.5851 7.94434 22 7.94434C23.7863 7.94434 25.4594 8.42577 26.9005 9.26238C28.3028 10.0765 29.4846 11.2273 30.3332 12.6065C30.9938 13.6805 31.4532 14.8912 31.6578 16.187L31.9785 18.2172C31.3304 18.2611 30.7527 18.5585 30.3406 19.0098C25.9973 18.6732 22.0784 16.8241 19.1108 13.9871ZM16.5001 29.9414C14.3456 28.3211 12.9274 25.7745 12.8405 22.8917C12.539 23.0247 12.2063 23.0999 11.8556 23.0999C11.6505 23.0999 11.4526 23.072 11.2623 23.0244L9.77783 32.4226H16.5001V29.9414ZM32.1445 23.1C31.7939 23.1 31.461 23.0248 31.1595 22.8918C31.0726 25.7745 29.6545 28.3212 27.5001 29.9413V32.4226H34.2223L32.7378 23.0244C32.5475 23.072 32.3496 23.1 32.1445 23.1Z" fill="#00004D"/>
<path fill-rule="evenodd" clip-rule="evenodd" d="M41.5556 44.0293L38.0066 38.8954C36.7097 37.0193 34.7975 35.6554 32.6011 35.0401L27.5 33.6111C27.5 36.6487 25.0376 39.1111 22 39.1111V39.1111C18.9624 39.1111 16.5 36.6487 16.5 33.6111L11.3988 35.0401C9.20249 35.6554 7.29032 37.0193 5.9933 38.8954L2.44446 44.0293V47.6666H41.5556V44.0293Z" fill="#5D7197"/>
</g>
</svg>
